<svg xmlns="http://www.w3.org/2000/svg" viewBox="0 0 760 360" font-family="system-ui, -apple-system, sans-serif" font-size="12">
<rect width="760" height="360" fill="white"/>
<text x="380.0" y="22" text-anchor="middle" font-size="16" font-weight="600">Season-to-date Home Win % by League</text>
<line x1="60" y1="310.0" x2="560" y2="310.0" stroke="#eee"/>
<text x="54" y="314.0" text-anchor="end" fill="#666">40%</text>
<line x1="60" y1="242.5" x2="560" y2="242.5" stroke="#eee"/>
<text x="54" y="246.5" text-anchor="end" fill="#666">48%</text>
<line x1="60" y1="175.0" x2="560" y2="175.0" stroke="#eee"/>
<text x="54" y="179.0" text-anchor="end" fill="#666">55%</text>
<line x1="60" y1="107.5" x2="560" y2="107.5" stroke="#eee"/>
<text x="54" y="111.5" text-anchor="end" fill="#666">62%</text>
<line x1="60" y1="40.0" x2="560" y2="40.0" stroke="#eee"/>
<text x="54" y="44.0" text-anchor="end" fill="#666">70%</text>
<line x1="60.0" y1="310" x2="60.0" y2="314" stroke="#999"/>
<text x="60.0" y="328" text-anchor="middle" fill="#666">2025-09-05</text>
<line x1="185.0" y1="310" x2="185.0" y2="314" stroke="#999"/>
<text x="185.0" y="328" text-anchor="middle" fill="#666">2025-11-08</text>
<line x1="310.0" y1="310" x2="310.0" y2="314" stroke="#999"/>
<text x="310.0" y="328" text-anchor="middle" fill="#666">2026-01-10</text>
<line x1="435.0" y1="310" x2="435.0" y2="314" stroke="#999"/>
<text x="435.0" y="328" text-anchor="middle" fill="#666">2026-03-15</text>
<line x1="560.0" y1="310" x2="560.0" y2="314" stroke="#999"/>
<text x="560.0" y="328" text-anchor="middle" fill="#666">2026-05-18</text>
<line x1="60" y1="40" x2="60" y2="310" stroke="#444"/>
<line x1="60" y1="310" x2="560" y2="310" stroke="#444"/>
<line x1="60" y1="220.0" x2="560" y2="220.0" stroke="#bbb" stroke-dasharray="4,4"/>
<polyline fill="none" stroke="#1f77b4" stroke-width="2" points="454.1,670.0 456.1,220.0 458.0,175.0 460.0,104.3 462.0,114.7 463.9,147.4 465.9,148.9 467.8,126.0 469.8,133.8 471.8,136.7 473.7,150.5 475.7,165.0 477.6,172.6 479.6,168.8 481.6,170.5 483.5,172.1 485.5,169.0 487.5,166.3 489.4,171.7 491.4,166.3 493.3,164.2 495.3,155.7 497.3,161.2 499.2,168.7 501.2,172.6 503.1,173.4 505.1,180.1 507.1,185.6 509.0,180.9 511.0,183.0 512.9,186.6 514.9,187.8 516.9,186.9 518.8,187.5 520.8,187.6 522.7,189.5 524.7,187.3 526.7,191.1 528.6,191.1 530.6,189.3 532.5,188.3 534.5,186.5 536.5,189.9 538.4,190.4 540.4,192.0 542.4,188.1 544.3,185.2 546.3,187.0 548.2,187.0 550.2,182.9 552.2,181.5 554.1,183.0 556.1,184.5 558.0,187.2 560.0,184.0"/>
<polyline fill="none" stroke="#ff7f0e" stroke-width="2" points="150.2,220.0 152.2,91.4 154.1,107.5 156.1,187.9 158.0,179.1 160.0,134.3 162.0,143.6 163.9,126.9 165.9,140.6 167.8,132.5 169.8,141.2 171.8,157.2 173.7,133.8 175.7,148.0"/>
<polyline fill="none" stroke="#2ca02c" stroke-width="2" points="60.0,-230.0 63.9,185.4 65.9,155.7 67.8,190.0 73.7,163.7 77.6,187.9 79.6,220.0 81.6,234.5 87.5,220.0 91.4,130.0 93.3,141.7 95.3,153.0 101.2,163.7 105.1,136.1 107.1,138.9 109.0,132.9 114.9,141.4 118.8,176.8 120.8,183.5 122.7,178.0 128.6,172.6 132.5,167.7 134.5,158.6 136.5,164.4 142.4,160.0 146.3,166.0 148.2,158.2 150.2,154.5 156.1,150.8 160.0,148.9 162.0,153.5 163.9,150.2 169.8,154.6 173.7,170.8 175.7,174.7 177.6,178.5 183.5,175.3 187.5,178.5 189.4,175.6 191.4,179.1 197.3,176.2 201.2,182.3 203.1,179.6 205.1,182.7 211.0,180.1 214.9,180.1 216.9,177.6 218.8,175.3 222.7,175.8 224.7,181.4 228.6,178.6 230.6,181.3 232.5,179.1 238.4,176.9 242.4,186.1 244.3,188.5 246.3,186.4 252.2,188.8 256.1,180.2 258.0,182.5 260.0,180.6 265.9,178.7 267.8,181.0 269.8,186.9 271.8,189.0 273.7,191.0 277.6,191.3 279.6,193.3 281.6,195.3 283.5,203.6 285.5,201.9 287.5,200.1 295.3,198.4 297.3,189.3 299.2,187.7 309.0,189.5 311.0,191.6 312.9,190.0 314.9,191.8 322.7,190.2 324.7,188.9 338.4,189.1"/>
<rect x="576" y="31" width="12" height="12" fill="#1f77b4"/>
<text x="594" y="41" fill="#333">MLB</text>
<rect x="576" y="51" width="12" height="12" fill="#ff7f0e"/>
<text x="594" y="61" fill="#333">NBA</text>
<rect x="576" y="71" width="12" height="12" fill="#2ca02c"/>
<text x="594" y="81" fill="#333">NFL</text>
</svg>