<svg xmlns="http://www.w3.org/2000/svg" viewBox="0 0 760 360" font-family="system-ui, -apple-system, sans-serif" font-size="12">
<rect width="760" height="360" fill="white"/>
<text x="380.0" y="22" text-anchor="middle" font-size="16" font-weight="600">Season-to-date Home Win % (Spotlight Teams)</text>
<line x1="60" y1="310.0" x2="560" y2="310.0" stroke="#eee"/>
<text x="54" y="314.0" text-anchor="end" fill="#666">0%</text>
<line x1="60" y1="242.5" x2="560" y2="242.5" stroke="#eee"/>
<text x="54" y="246.5" text-anchor="end" fill="#666">25%</text>
<line x1="60" y1="175.0" x2="560" y2="175.0" stroke="#eee"/>
<text x="54" y="179.0" text-anchor="end" fill="#666">50%</text>
<line x1="60" y1="107.5" x2="560" y2="107.5" stroke="#eee"/>
<text x="54" y="111.5" text-anchor="end" fill="#666">75%</text>
<line x1="60" y1="40.0" x2="560" y2="40.0" stroke="#eee"/>
<text x="54" y="44.0" text-anchor="end" fill="#666">100%</text>
<line x1="60.0" y1="310" x2="60.0" y2="314" stroke="#999"/>
<text x="60.0" y="328" text-anchor="middle" fill="#666">2025-09-14</text>
<line x1="185.0" y1="310" x2="185.0" y2="314" stroke="#999"/>
<text x="185.0" y="328" text-anchor="middle" fill="#666">2025-11-15</text>
<line x1="310.0" y1="310" x2="310.0" y2="314" stroke="#999"/>
<text x="310.0" y="328" text-anchor="middle" fill="#666">2026-01-15</text>
<line x1="435.0" y1="310" x2="435.0" y2="314" stroke="#999"/>
<text x="435.0" y="328" text-anchor="middle" fill="#666">2026-03-17</text>
<line x1="560.0" y1="310" x2="560.0" y2="314" stroke="#999"/>
<text x="560.0" y="328" text-anchor="middle" fill="#666">2026-05-18</text>
<line x1="60" y1="40" x2="60" y2="310" stroke="#444"/>
<line x1="60" y1="310" x2="560" y2="310" stroke="#444"/>
<line x1="60" y1="175.0" x2="560" y2="175.0" stroke="#bbb" stroke-dasharray="4,4"/>
<polyline fill="none" stroke="#1f77b4" stroke-width="2" points="145.4,40.0 147.4,175.0 151.5,220.0"/>
<polyline fill="none" stroke="#ff7f0e" stroke-width="2" points="468.5,40.0 470.6,175.0 472.6,220.0 474.6,175.0 476.7,148.0 478.7,130.0 480.7,117.1 488.9,107.5 490.9,100.0 492.9,121.0 497.0,138.2 499.0,152.5 501.1,164.6 517.3,155.7 519.3,166.0 521.4,175.0 523.4,167.1 525.4,175.0 527.5,182.1 529.5,175.0 547.8,168.6 549.8,175.0 551.9,169.1 553.9,175.0 555.9,180.4 558.0,175.0 560.0,170.0"/>
<polyline fill="none" stroke="#2ca02c" stroke-width="2" points="62.0,310.0 74.2,175.0 131.1,220.0 173.8,242.5 188.0,256.0 230.7,220.0 267.3,194.3 287.6,175.0"/>
<polyline fill="none" stroke="#d62728" stroke-width="2" points="468.5,40.0 470.6,40.0 472.6,40.0 474.6,107.5 476.7,94.0 478.7,130.0 488.9,117.1 490.9,141.2 492.9,130.0 495.0,148.0 497.0,138.2 499.0,152.5 501.1,143.8 517.3,155.7 519.3,166.0 521.4,175.0 523.4,182.9 525.4,175.0 527.5,167.9 529.5,161.5 547.8,155.7 549.8,162.7 551.9,157.4 553.9,163.8 555.9,169.6 558.0,175.0"/>
<polyline fill="none" stroke="#9467bd" stroke-width="2" points="60.0,310.0 116.9,175.0 147.4,220.0 159.6,175.0 188.0,148.0 216.5,175.0 249.0,155.7 289.7,141.2 305.9,160.0"/>
<rect x="576" y="31" width="12" height="12" fill="#1f77b4"/>
<text x="594" y="41" fill="#333">Minnesota Timberwolves</text>
<rect x="576" y="51" width="12" height="12" fill="#ff7f0e"/>
<text x="594" y="61" fill="#333">Minnesota Twins</text>
<rect x="576" y="71" width="12" height="12" fill="#2ca02c"/>
<text x="594" y="81" fill="#333">Minnesota Vikings</text>
<rect x="576" y="91" width="12" height="12" fill="#d62728"/>
<text x="594" y="101" fill="#333">Pittsburgh Pirates</text>
<rect x="576" y="111" width="12" height="12" fill="#9467bd"/>
<text x="594" y="121" fill="#333">Pittsburgh Steelers</text>
</svg>