<svg xmlns="http://www.w3.org/2000/svg" viewBox="0 0 760 360" font-family="system-ui, -apple-system, sans-serif" font-size="12">
<rect width="760" height="360" fill="white"/>
<text x="380.0" y="22" text-anchor="middle" font-size="16" font-weight="600">Season-to-date Home Win % by League</text>
<line x1="60" y1="310.0" x2="560" y2="310.0" stroke="#eee"/>
<text x="54" y="314.0" text-anchor="end" fill="#666">40%</text>
<line x1="60" y1="242.5" x2="560" y2="242.5" stroke="#eee"/>
<text x="54" y="246.5" text-anchor="end" fill="#666">48%</text>
<line x1="60" y1="175.0" x2="560" y2="175.0" stroke="#eee"/>
<text x="54" y="179.0" text-anchor="end" fill="#666">55%</text>
<line x1="60" y1="107.5" x2="560" y2="107.5" stroke="#eee"/>
<text x="54" y="111.5" text-anchor="end" fill="#666">62%</text>
<line x1="60" y1="40.0" x2="560" y2="40.0" stroke="#eee"/>
<text x="54" y="44.0" text-anchor="end" fill="#666">70%</text>
<line x1="60.0" y1="310" x2="60.0" y2="314" stroke="#999"/>
<text x="60.0" y="328" text-anchor="middle" fill="#666">2025-09-05</text>
<line x1="185.0" y1="310" x2="185.0" y2="314" stroke="#999"/>
<text x="185.0" y="328" text-anchor="middle" fill="#666">2025-11-09</text>
<line x1="310.0" y1="310" x2="310.0" y2="314" stroke="#999"/>
<text x="310.0" y="328" text-anchor="middle" fill="#666">2026-01-14</text>
<line x1="435.0" y1="310" x2="435.0" y2="314" stroke="#999"/>
<text x="435.0" y="328" text-anchor="middle" fill="#666">2026-03-20</text>
<line x1="560.0" y1="310" x2="560.0" y2="314" stroke="#999"/>
<text x="560.0" y="328" text-anchor="middle" fill="#666">2026-05-24</text>
<line x1="60" y1="40" x2="60" y2="310" stroke="#444"/>
<line x1="60" y1="310" x2="560" y2="310" stroke="#444"/>
<line x1="60" y1="220.0" x2="560" y2="220.0" stroke="#bbb" stroke-dasharray="4,4"/>
<polyline fill="none" stroke="#1f77b4" stroke-width="2" points="445.1,670.0 447.0,220.0 448.9,175.0 450.8,104.3 452.7,114.7 454.6,147.4 456.6,148.9 458.5,126.0 460.4,133.8 462.3,136.7 464.2,150.5 466.1,165.0 468.0,172.6 470.0,168.8 471.9,170.5 473.8,172.1 475.7,169.0 477.6,166.3 479.5,171.7 481.5,166.3 483.4,164.2 485.3,155.7 487.2,161.2 489.1,168.7 491.0,172.6 493.0,173.4 494.9,180.1 496.8,185.6 498.7,180.9 500.6,183.0 502.5,186.6 504.4,187.8 506.4,186.9 508.3,187.5 510.2,187.6 512.1,189.5 514.0,187.3 515.9,191.1 517.9,191.1 519.8,189.3 521.7,188.3 523.6,186.5 525.5,189.9 527.4,190.4 529.3,192.0 531.3,188.1 533.2,185.2 535.1,187.0 537.0,187.0 538.9,182.9 540.8,181.5 542.8,183.0 544.7,184.5 546.6,187.2 548.5,184.0 550.4,187.9 552.3,191.5 554.3,194.8 556.2,195.3 558.1,193.4 560.0,194.5"/>
<polyline fill="none" stroke="#ff7f0e" stroke-width="2" points="148.1,220.0 150.0,91.4 152.0,107.5 153.9,187.9 155.8,179.1 157.7,134.3 159.6,143.6 161.5,126.9 163.4,140.6 165.4,132.5 167.3,141.2 169.2,157.2 171.1,133.8 173.0,148.0"/>
<polyline fill="none" stroke="#2ca02c" stroke-width="2" points="60.0,-230.0 63.8,185.4 65.7,155.7 67.7,190.0 73.4,163.7 77.2,187.9 79.2,220.0 81.1,234.5 86.8,220.0 90.7,130.0 92.6,141.7 94.5,153.0 100.2,163.7 104.1,136.1 106.0,138.9 107.9,132.9 113.6,141.4 117.5,176.8 119.4,183.5 121.3,178.0 127.0,172.6 130.9,167.7 132.8,158.6 134.7,164.4 140.5,160.0 144.3,166.0 146.2,158.2 148.1,154.5 153.9,150.8 157.7,148.9 159.6,153.5 161.5,150.2 167.3,154.6 171.1,170.8 173.0,174.7 174.9,178.5 180.7,175.3 184.5,178.5 186.4,175.6 188.4,179.1 194.1,176.2 197.9,182.3 199.8,179.6 201.8,182.7 207.5,180.1 211.3,180.1 213.3,177.6 215.2,175.3 219.0,175.8 220.9,181.4 224.8,178.6 226.7,181.3 228.6,179.1 234.3,176.9 238.2,186.1 240.1,188.5 242.0,186.4 247.7,188.8 251.6,180.2 253.5,182.5 255.4,180.6 261.1,178.7 263.1,181.0 265.0,186.9 266.9,189.0 268.8,191.0 272.6,191.3 274.6,193.3 276.5,195.3 278.4,203.6 280.3,201.9 282.2,200.1 289.9,198.4 291.8,189.3 293.7,187.7 303.3,189.5 305.2,191.6 307.1,190.0 309.0,191.8 316.7,190.2 318.6,188.9 332.0,189.1"/>
<polyline fill="none" stroke="#d62728" stroke-width="2" points="548.5,670.0 552.3,670.0 554.3,670.0 556.2,670.0 558.1,490.0 560.0,370.0"/>
<rect x="576" y="31" width="12" height="12" fill="#1f77b4"/>
<text x="594" y="41" fill="#333">MLB</text>
<rect x="576" y="51" width="12" height="12" fill="#ff7f0e"/>
<text x="594" y="61" fill="#333">NBA</text>
<rect x="576" y="71" width="12" height="12" fill="#2ca02c"/>
<text x="594" y="81" fill="#333">NFL</text>
<rect x="576" y="91" width="12" height="12" fill="#d62728"/>
<text x="594" y="101" fill="#333">NHL</text>
</svg>