<svg xmlns="http://www.w3.org/2000/svg" viewBox="0 0 760 360" font-family="system-ui, -apple-system, sans-serif" font-size="12">
<rect width="760" height="360" fill="white"/>
<text x="380.0" y="22" text-anchor="middle" font-size="16" font-weight="600">Season-to-date Home Win % by League</text>
<line x1="60" y1="310.0" x2="560" y2="310.0" stroke="#eee"/>
<text x="54" y="314.0" text-anchor="end" fill="#666">40%</text>
<line x1="60" y1="242.5" x2="560" y2="242.5" stroke="#eee"/>
<text x="54" y="246.5" text-anchor="end" fill="#666">48%</text>
<line x1="60" y1="175.0" x2="560" y2="175.0" stroke="#eee"/>
<text x="54" y="179.0" text-anchor="end" fill="#666">55%</text>
<line x1="60" y1="107.5" x2="560" y2="107.5" stroke="#eee"/>
<text x="54" y="111.5" text-anchor="end" fill="#666">62%</text>
<line x1="60" y1="40.0" x2="560" y2="40.0" stroke="#eee"/>
<text x="54" y="44.0" text-anchor="end" fill="#666">70%</text>
<line x1="60.0" y1="310" x2="60.0" y2="314" stroke="#999"/>
<text x="60.0" y="328" text-anchor="middle" fill="#666">2025-09-05</text>
<line x1="185.0" y1="310" x2="185.0" y2="314" stroke="#999"/>
<text x="185.0" y="328" text-anchor="middle" fill="#666">2025-11-09</text>
<line x1="310.0" y1="310" x2="310.0" y2="314" stroke="#999"/>
<text x="310.0" y="328" text-anchor="middle" fill="#666">2026-01-12</text>
<line x1="435.0" y1="310" x2="435.0" y2="314" stroke="#999"/>
<text x="435.0" y="328" text-anchor="middle" fill="#666">2026-03-18</text>
<line x1="560.0" y1="310" x2="560.0" y2="314" stroke="#999"/>
<text x="560.0" y="328" text-anchor="middle" fill="#666">2026-05-22</text>
<line x1="60" y1="40" x2="60" y2="310" stroke="#444"/>
<line x1="60" y1="310" x2="560" y2="310" stroke="#444"/>
<line x1="60" y1="220.0" x2="560" y2="220.0" stroke="#bbb" stroke-dasharray="4,4"/>
<polyline fill="none" stroke="#1f77b4" stroke-width="2" points="448.0,670.0 450.0,220.0 451.9,175.0 453.8,104.3 455.8,114.7 457.7,147.4 459.6,148.9 461.5,126.0 463.5,133.8 465.4,136.7 467.3,150.5 469.3,165.0 471.2,172.6 473.1,168.8 475.1,170.5 477.0,172.1 478.9,169.0 480.8,166.3 482.8,171.7 484.7,166.3 486.6,164.2 488.6,155.7 490.5,161.2 492.4,168.7 494.4,172.6 496.3,173.4 498.2,180.1 500.2,185.6 502.1,180.9 504.0,183.0 505.9,186.6 507.9,187.8 509.8,186.9 511.7,187.5 513.7,187.6 515.6,189.5 517.5,187.3 519.5,191.1 521.4,191.1 523.3,189.3 525.3,188.3 527.2,186.5 529.1,189.9 531.0,190.4 533.0,192.0 534.9,188.1 536.8,185.2 538.8,187.0 540.7,187.0 542.6,182.9 544.6,181.5 546.5,183.0 548.4,184.5 550.3,187.2 552.3,184.0 554.2,187.9 556.1,191.5 558.1,194.8 560.0,195.3"/>
<polyline fill="none" stroke="#ff7f0e" stroke-width="2" points="148.8,220.0 150.7,91.4 152.7,107.5 154.6,187.9 156.5,179.1 158.5,134.3 160.4,143.6 162.3,126.9 164.2,140.6 166.2,132.5 168.1,141.2 170.0,157.2 172.0,133.8 173.9,148.0"/>
<polyline fill="none" stroke="#2ca02c" stroke-width="2" points="60.0,-230.0 63.9,185.4 65.8,155.7 67.7,190.0 73.5,163.7 77.4,187.9 79.3,220.0 81.2,234.5 87.0,220.0 90.9,130.0 92.8,141.7 94.7,153.0 100.5,163.7 104.4,136.1 106.3,138.9 108.3,132.9 114.1,141.4 117.9,176.8 119.8,183.5 121.8,178.0 127.6,172.6 131.4,167.7 133.4,158.6 135.3,164.4 141.1,160.0 144.9,166.0 146.9,158.2 148.8,154.5 154.6,150.8 158.5,148.9 160.4,153.5 162.3,150.2 168.1,154.6 172.0,170.8 173.9,174.7 175.8,178.5 181.6,175.3 185.5,178.5 187.4,175.6 189.3,179.1 195.1,176.2 199.0,182.3 200.9,179.6 202.9,182.7 208.6,180.1 212.5,180.1 214.4,177.6 216.4,175.3 220.2,175.8 222.2,181.4 226.0,178.6 228.0,181.3 229.9,179.1 235.7,176.9 239.5,186.1 241.5,188.5 243.4,186.4 249.2,188.8 253.1,180.2 255.0,182.5 256.9,180.6 262.7,178.7 264.6,181.0 266.6,186.9 268.5,189.0 270.4,191.0 274.3,191.3 276.2,193.3 278.1,195.3 280.1,203.6 282.0,201.9 283.9,200.1 291.7,198.4 293.6,189.3 295.5,187.7 305.2,189.5 307.1,191.6 309.0,190.0 311.0,191.8 318.7,190.2 320.6,188.9 334.1,189.1"/>
<polyline fill="none" stroke="#d62728" stroke-width="2" points="552.3,670.0 556.1,670.0 558.1,670.0 560.0,670.0"/>
<rect x="576" y="31" width="12" height="12" fill="#1f77b4"/>
<text x="594" y="41" fill="#333">MLB</text>
<rect x="576" y="51" width="12" height="12" fill="#ff7f0e"/>
<text x="594" y="61" fill="#333">NBA</text>
<rect x="576" y="71" width="12" height="12" fill="#2ca02c"/>
<text x="594" y="81" fill="#333">NFL</text>
<rect x="576" y="91" width="12" height="12" fill="#d62728"/>
<text x="594" y="101" fill="#333">NHL</text>
</svg>