<svg xmlns="http://www.w3.org/2000/svg" viewBox="0 0 760 360" font-family="system-ui, -apple-system, sans-serif" font-size="12">
<rect width="760" height="360" fill="white"/>
<text x="380.0" y="22" text-anchor="middle" font-size="16" font-weight="600">Season-to-date Home Win % by League</text>
<line x1="60" y1="310.0" x2="560" y2="310.0" stroke="#eee"/>
<text x="54" y="314.0" text-anchor="end" fill="#666">40%</text>
<line x1="60" y1="242.5" x2="560" y2="242.5" stroke="#eee"/>
<text x="54" y="246.5" text-anchor="end" fill="#666">48%</text>
<line x1="60" y1="175.0" x2="560" y2="175.0" stroke="#eee"/>
<text x="54" y="179.0" text-anchor="end" fill="#666">55%</text>
<line x1="60" y1="107.5" x2="560" y2="107.5" stroke="#eee"/>
<text x="54" y="111.5" text-anchor="end" fill="#666">62%</text>
<line x1="60" y1="40.0" x2="560" y2="40.0" stroke="#eee"/>
<text x="54" y="44.0" text-anchor="end" fill="#666">70%</text>
<line x1="60.0" y1="310" x2="60.0" y2="314" stroke="#999"/>
<text x="60.0" y="328" text-anchor="middle" fill="#666">2025-09-05</text>
<line x1="185.0" y1="310" x2="185.0" y2="314" stroke="#999"/>
<text x="185.0" y="328" text-anchor="middle" fill="#666">2025-11-09</text>
<line x1="310.0" y1="310" x2="310.0" y2="314" stroke="#999"/>
<text x="310.0" y="328" text-anchor="middle" fill="#666">2026-01-13</text>
<line x1="435.0" y1="310" x2="435.0" y2="314" stroke="#999"/>
<text x="435.0" y="328" text-anchor="middle" fill="#666">2026-03-19</text>
<line x1="560.0" y1="310" x2="560.0" y2="314" stroke="#999"/>
<text x="560.0" y="328" text-anchor="middle" fill="#666">2026-05-23</text>
<line x1="60" y1="40" x2="60" y2="310" stroke="#444"/>
<line x1="60" y1="310" x2="560" y2="310" stroke="#444"/>
<line x1="60" y1="220.0" x2="560" y2="220.0" stroke="#bbb" stroke-dasharray="4,4"/>
<polyline fill="none" stroke="#1f77b4" stroke-width="2" points="446.5,670.0 448.5,220.0 450.4,175.0 452.3,104.3 454.2,114.7 456.2,147.4 458.1,148.9 460.0,126.0 461.9,133.8 463.8,136.7 465.8,150.5 467.7,165.0 469.6,172.6 471.5,168.8 473.5,170.5 475.4,172.1 477.3,169.0 479.2,166.3 481.2,171.7 483.1,166.3 485.0,164.2 486.9,155.7 488.8,161.2 490.8,168.7 492.7,172.6 494.6,173.4 496.5,180.1 498.5,185.6 500.4,180.9 502.3,183.0 504.2,186.6 506.2,187.8 508.1,186.9 510.0,187.5 511.9,187.6 513.8,189.5 515.8,187.3 517.7,191.1 519.6,191.1 521.5,189.3 523.5,188.3 525.4,186.5 527.3,189.9 529.2,190.4 531.2,192.0 533.1,188.1 535.0,185.2 536.9,187.0 538.8,187.0 540.8,182.9 542.7,181.5 544.6,183.0 546.5,184.5 548.5,187.2 550.4,184.0 552.3,187.9 554.2,191.5 556.2,194.8 558.1,195.3 560.0,193.4"/>
<polyline fill="none" stroke="#ff7f0e" stroke-width="2" points="148.5,220.0 150.4,91.4 152.3,107.5 154.2,187.9 156.2,179.1 158.1,134.3 160.0,143.6 161.9,126.9 163.8,140.6 165.8,132.5 167.7,141.2 169.6,157.2 171.5,133.8 173.5,148.0"/>
<polyline fill="none" stroke="#2ca02c" stroke-width="2" points="60.0,-230.0 63.8,185.4 65.8,155.7 67.7,190.0 73.5,163.7 77.3,187.9 79.2,220.0 81.2,234.5 86.9,220.0 90.8,130.0 92.7,141.7 94.6,153.0 100.4,163.7 104.2,136.1 106.2,138.9 108.1,132.9 113.8,141.4 117.7,176.8 119.6,183.5 121.5,178.0 127.3,172.6 131.2,167.7 133.1,158.6 135.0,164.4 140.8,160.0 144.6,166.0 146.5,158.2 148.5,154.5 154.2,150.8 158.1,148.9 160.0,153.5 161.9,150.2 167.7,154.6 171.5,170.8 173.5,174.7 175.4,178.5 181.2,175.3 185.0,178.5 186.9,175.6 188.8,179.1 194.6,176.2 198.5,182.3 200.4,179.6 202.3,182.7 208.1,180.1 211.9,180.1 213.8,177.6 215.8,175.3 219.6,175.8 221.5,181.4 225.4,178.6 227.3,181.3 229.2,179.1 235.0,176.9 238.8,186.1 240.8,188.5 242.7,186.4 248.5,188.8 252.3,180.2 254.2,182.5 256.2,180.6 261.9,178.7 263.8,181.0 265.8,186.9 267.7,189.0 269.6,191.0 273.5,191.3 275.4,193.3 277.3,195.3 279.2,203.6 281.2,201.9 283.1,200.1 290.8,198.4 292.7,189.3 294.6,187.7 304.2,189.5 306.2,191.6 308.1,190.0 310.0,191.8 317.7,190.2 319.6,188.9 333.1,189.1"/>
<polyline fill="none" stroke="#d62728" stroke-width="2" points="550.4,670.0 554.2,670.0 556.2,670.0 558.1,670.0 560.0,490.0"/>
<rect x="576" y="31" width="12" height="12" fill="#1f77b4"/>
<text x="594" y="41" fill="#333">MLB</text>
<rect x="576" y="51" width="12" height="12" fill="#ff7f0e"/>
<text x="594" y="61" fill="#333">NBA</text>
<rect x="576" y="71" width="12" height="12" fill="#2ca02c"/>
<text x="594" y="81" fill="#333">NFL</text>
<rect x="576" y="91" width="12" height="12" fill="#d62728"/>
<text x="594" y="101" fill="#333">NHL</text>
</svg>