<svg xmlns="http://www.w3.org/2000/svg" viewBox="0 0 760 360" font-family="system-ui, -apple-system, sans-serif" font-size="12">
<rect width="760" height="360" fill="white"/>
<text x="380.0" y="22" text-anchor="middle" font-size="16" font-weight="600">Season-to-date Home Win % (Spotlight Teams)</text>
<line x1="60" y1="310.0" x2="560" y2="310.0" stroke="#eee"/>
<text x="54" y="314.0" text-anchor="end" fill="#666">0%</text>
<line x1="60" y1="242.5" x2="560" y2="242.5" stroke="#eee"/>
<text x="54" y="246.5" text-anchor="end" fill="#666">25%</text>
<line x1="60" y1="175.0" x2="560" y2="175.0" stroke="#eee"/>
<text x="54" y="179.0" text-anchor="end" fill="#666">50%</text>
<line x1="60" y1="107.5" x2="560" y2="107.5" stroke="#eee"/>
<text x="54" y="111.5" text-anchor="end" fill="#666">75%</text>
<line x1="60" y1="40.0" x2="560" y2="40.0" stroke="#eee"/>
<text x="54" y="44.0" text-anchor="end" fill="#666">100%</text>
<line x1="60.0" y1="310" x2="60.0" y2="314" stroke="#999"/>
<text x="60.0" y="328" text-anchor="middle" fill="#666">2025-09-14</text>
<line x1="185.0" y1="310" x2="185.0" y2="314" stroke="#999"/>
<text x="185.0" y="328" text-anchor="middle" fill="#666">2025-11-15</text>
<line x1="310.0" y1="310" x2="310.0" y2="314" stroke="#999"/>
<text x="310.0" y="328" text-anchor="middle" fill="#666">2026-01-16</text>
<line x1="435.0" y1="310" x2="435.0" y2="314" stroke="#999"/>
<text x="435.0" y="328" text-anchor="middle" fill="#666">2026-03-19</text>
<line x1="560.0" y1="310" x2="560.0" y2="314" stroke="#999"/>
<text x="560.0" y="328" text-anchor="middle" fill="#666">2026-05-20</text>
<line x1="60" y1="40" x2="60" y2="310" stroke="#444"/>
<line x1="60" y1="310" x2="560" y2="310" stroke="#444"/>
<line x1="60" y1="175.0" x2="560" y2="175.0" stroke="#bbb" stroke-dasharray="4,4"/>
<polyline fill="none" stroke="#1f77b4" stroke-width="2" points="144.7,40.0 146.7,175.0 150.7,220.0"/>
<polyline fill="none" stroke="#ff7f0e" stroke-width="2" points="465.2,40.0 467.3,175.0 469.3,220.0 471.3,175.0 473.3,148.0 475.3,130.0 477.3,117.1 485.4,107.5 487.4,100.0 489.4,121.0 493.5,138.2 495.5,152.5 497.5,164.6 513.6,155.7 515.6,166.0 517.7,175.0 519.7,167.1 521.7,175.0 523.7,182.1 525.7,175.0 543.9,168.6 545.9,175.0 547.9,169.1 549.9,175.0 551.9,180.4 554.0,175.0 556.0,170.0 558.0,175.0 560.0,170.3"/>
<polyline fill="none" stroke="#2ca02c" stroke-width="2" points="62.0,310.0 74.1,175.0 130.6,220.0 172.9,242.5 187.0,256.0 229.4,220.0 265.6,194.3 285.8,175.0"/>
<polyline fill="none" stroke="#d62728" stroke-width="2" points="465.2,40.0 467.3,40.0 469.3,40.0 471.3,107.5 473.3,94.0 475.3,130.0 485.4,117.1 487.4,141.2 489.4,130.0 491.5,148.0 493.5,138.2 495.5,152.5 497.5,143.8 513.6,155.7 515.6,166.0 517.7,175.0 519.7,182.9 521.7,175.0 523.7,167.9 525.7,161.5 543.9,155.7 545.9,162.7 547.9,157.4 549.9,163.8 551.9,169.6 554.0,175.0"/>
<polyline fill="none" stroke="#9467bd" stroke-width="2" points="60.0,310.0 116.5,175.0 146.7,220.0 158.8,175.0 187.0,148.0 215.2,175.0 247.5,155.7 287.8,141.2 304.0,160.0"/>
<rect x="576" y="31" width="12" height="12" fill="#1f77b4"/>
<text x="594" y="41" fill="#333">Minnesota Timberwolves</text>
<rect x="576" y="51" width="12" height="12" fill="#ff7f0e"/>
<text x="594" y="61" fill="#333">Minnesota Twins</text>
<rect x="576" y="71" width="12" height="12" fill="#2ca02c"/>
<text x="594" y="81" fill="#333">Minnesota Vikings</text>
<rect x="576" y="91" width="12" height="12" fill="#d62728"/>
<text x="594" y="101" fill="#333">Pittsburgh Pirates</text>
<rect x="576" y="111" width="12" height="12" fill="#9467bd"/>
<text x="594" y="121" fill="#333">Pittsburgh Steelers</text>
</svg>