<svg xmlns="http://www.w3.org/2000/svg" viewBox="0 0 760 360" font-family="system-ui, -apple-system, sans-serif" font-size="12">
<rect width="760" height="360" fill="white"/>
<text x="380.0" y="22" text-anchor="middle" font-size="16" font-weight="600">Season-to-date Home Win % by League</text>
<line x1="60" y1="310.0" x2="560" y2="310.0" stroke="#eee"/>
<text x="54" y="314.0" text-anchor="end" fill="#666">40%</text>
<line x1="60" y1="242.5" x2="560" y2="242.5" stroke="#eee"/>
<text x="54" y="246.5" text-anchor="end" fill="#666">48%</text>
<line x1="60" y1="175.0" x2="560" y2="175.0" stroke="#eee"/>
<text x="54" y="179.0" text-anchor="end" fill="#666">55%</text>
<line x1="60" y1="107.5" x2="560" y2="107.5" stroke="#eee"/>
<text x="54" y="111.5" text-anchor="end" fill="#666">62%</text>
<line x1="60" y1="40.0" x2="560" y2="40.0" stroke="#eee"/>
<text x="54" y="44.0" text-anchor="end" fill="#666">70%</text>
<line x1="60.0" y1="310" x2="60.0" y2="314" stroke="#999"/>
<text x="60.0" y="328" text-anchor="middle" fill="#666">2025-09-05</text>
<line x1="185.0" y1="310" x2="185.0" y2="314" stroke="#999"/>
<text x="185.0" y="328" text-anchor="middle" fill="#666">2025-11-09</text>
<line x1="310.0" y1="310" x2="310.0" y2="314" stroke="#999"/>
<text x="310.0" y="328" text-anchor="middle" fill="#666">2026-01-12</text>
<line x1="435.0" y1="310" x2="435.0" y2="314" stroke="#999"/>
<text x="435.0" y="328" text-anchor="middle" fill="#666">2026-03-17</text>
<line x1="560.0" y1="310" x2="560.0" y2="314" stroke="#999"/>
<text x="560.0" y="328" text-anchor="middle" fill="#666">2026-05-21</text>
<line x1="60" y1="40" x2="60" y2="310" stroke="#444"/>
<line x1="60" y1="310" x2="560" y2="310" stroke="#444"/>
<line x1="60" y1="220.0" x2="560" y2="220.0" stroke="#bbb" stroke-dasharray="4,4"/>
<polyline fill="none" stroke="#1f77b4" stroke-width="2" points="449.5,670.0 451.5,220.0 453.4,175.0 455.3,104.3 457.3,114.7 459.2,147.4 461.2,148.9 463.1,126.0 465.0,133.8 467.0,136.7 468.9,150.5 470.9,165.0 472.8,172.6 474.7,168.8 476.7,170.5 478.6,172.1 480.5,169.0 482.5,166.3 484.4,171.7 486.4,166.3 488.3,164.2 490.2,155.7 492.2,161.2 494.1,168.7 496.0,172.6 498.0,173.4 499.9,180.1 501.9,185.6 503.8,180.9 505.7,183.0 507.7,186.6 509.6,187.8 511.6,186.9 513.5,187.5 515.4,187.6 517.4,189.5 519.3,187.3 521.2,191.1 523.2,191.1 525.1,189.3 527.1,188.3 529.0,186.5 530.9,189.9 532.9,190.4 534.8,192.0 536.7,188.1 538.7,185.2 540.6,187.0 542.6,187.0 544.5,182.9 546.4,181.5 548.4,183.0 550.3,184.5 552.2,187.2 554.2,184.0 556.1,187.9 558.1,191.5 560.0,194.8"/>
<polyline fill="none" stroke="#ff7f0e" stroke-width="2" points="149.1,220.0 151.1,91.4 153.0,107.5 155.0,187.9 156.9,179.1 158.8,134.3 160.8,143.6 162.7,126.9 164.7,140.6 166.6,132.5 168.5,141.2 170.5,157.2 172.4,133.8 174.3,148.0"/>
<polyline fill="none" stroke="#2ca02c" stroke-width="2" points="60.0,-230.0 63.9,185.4 65.8,155.7 67.8,190.0 73.6,163.7 77.4,187.9 79.4,220.0 81.3,234.5 87.1,220.0 91.0,130.0 92.9,141.7 94.9,153.0 100.7,163.7 104.6,136.1 106.5,138.9 108.4,132.9 114.3,141.4 118.1,176.8 120.1,183.5 122.0,178.0 127.8,172.6 131.7,167.7 133.6,158.6 135.6,164.4 141.4,160.0 145.3,166.0 147.2,158.2 149.1,154.5 155.0,150.8 158.8,148.9 160.8,153.5 162.7,150.2 168.5,154.6 172.4,170.8 174.3,174.7 176.3,178.5 182.1,175.3 186.0,178.5 187.9,175.6 189.8,179.1 195.7,176.2 199.5,182.3 201.5,179.6 203.4,182.7 209.2,180.1 213.1,180.1 215.0,177.6 217.0,175.3 220.9,175.8 222.8,181.4 226.7,178.6 228.6,181.3 230.5,179.1 236.4,176.9 240.2,186.1 242.2,188.5 244.1,186.4 249.9,188.8 253.8,180.2 255.7,182.5 257.7,180.6 263.5,178.7 265.4,181.0 267.4,186.9 269.3,189.0 271.2,191.0 275.1,191.3 277.1,193.3 279.0,195.3 280.9,203.6 282.9,201.9 284.8,200.1 292.6,198.4 294.5,189.3 296.4,187.7 306.1,189.5 308.1,191.6 310.0,190.0 311.9,191.8 319.7,190.2 321.6,188.9 335.2,189.1"/>
<polyline fill="none" stroke="#d62728" stroke-width="2" points="554.2,670.0 558.1,670.0 560.0,670.0"/>
<rect x="576" y="31" width="12" height="12" fill="#1f77b4"/>
<text x="594" y="41" fill="#333">MLB</text>
<rect x="576" y="51" width="12" height="12" fill="#ff7f0e"/>
<text x="594" y="61" fill="#333">NBA</text>
<rect x="576" y="71" width="12" height="12" fill="#2ca02c"/>
<text x="594" y="81" fill="#333">NFL</text>
<rect x="576" y="91" width="12" height="12" fill="#d62728"/>
<text x="594" y="101" fill="#333">NHL</text>
</svg>