<svg xmlns="http://www.w3.org/2000/svg" viewBox="0 0 760 360" font-family="system-ui, -apple-system, sans-serif" font-size="12">
<rect width="760" height="360" fill="white"/>
<text x="380.0" y="22" text-anchor="middle" font-size="16" font-weight="600">Season-to-date Home Win % by League</text>
<line x1="60" y1="310.0" x2="560" y2="310.0" stroke="#eee"/>
<text x="54" y="314.0" text-anchor="end" fill="#666">40%</text>
<line x1="60" y1="242.5" x2="560" y2="242.5" stroke="#eee"/>
<text x="54" y="246.5" text-anchor="end" fill="#666">48%</text>
<line x1="60" y1="175.0" x2="560" y2="175.0" stroke="#eee"/>
<text x="54" y="179.0" text-anchor="end" fill="#666">55%</text>
<line x1="60" y1="107.5" x2="560" y2="107.5" stroke="#eee"/>
<text x="54" y="111.5" text-anchor="end" fill="#666">62%</text>
<line x1="60" y1="40.0" x2="560" y2="40.0" stroke="#eee"/>
<text x="54" y="44.0" text-anchor="end" fill="#666">70%</text>
<line x1="60.0" y1="310" x2="60.0" y2="314" stroke="#999"/>
<text x="60.0" y="328" text-anchor="middle" fill="#666">2025-09-05</text>
<line x1="185.0" y1="310" x2="185.0" y2="314" stroke="#999"/>
<text x="185.0" y="328" text-anchor="middle" fill="#666">2025-11-07</text>
<line x1="310.0" y1="310" x2="310.0" y2="314" stroke="#999"/>
<text x="310.0" y="328" text-anchor="middle" fill="#666">2026-01-10</text>
<line x1="435.0" y1="310" x2="435.0" y2="314" stroke="#999"/>
<text x="435.0" y="328" text-anchor="middle" fill="#666">2026-03-15</text>
<line x1="560.0" y1="310" x2="560.0" y2="314" stroke="#999"/>
<text x="560.0" y="328" text-anchor="middle" fill="#666">2026-05-17</text>
<line x1="60" y1="40" x2="60" y2="310" stroke="#444"/>
<line x1="60" y1="310" x2="560" y2="310" stroke="#444"/>
<line x1="60" y1="220.0" x2="560" y2="220.0" stroke="#bbb" stroke-dasharray="4,4"/>
<polyline fill="none" stroke="#1f77b4" stroke-width="2" points="455.7,670.0 457.6,220.0 459.6,175.0 461.6,104.3 463.5,114.7 465.5,147.4 467.5,148.9 469.4,126.0 471.4,133.8 473.4,136.7 475.4,150.5 477.3,165.0 479.3,172.6 481.3,168.8 483.2,170.5 485.2,172.1 487.2,169.0 489.1,166.3 491.1,171.7 493.1,166.3 495.0,164.2 497.0,155.7 499.0,161.2 500.9,168.7 502.9,172.6 504.9,173.4 506.9,180.1 508.8,185.6 510.8,180.9 512.8,183.0 514.7,186.6 516.7,187.8 518.7,186.9 520.6,187.5 522.6,187.6 524.6,189.5 526.5,187.3 528.5,191.1 530.5,191.1 532.4,189.3 534.4,188.3 536.4,186.5 538.3,189.9 540.3,190.4 542.3,192.0 544.3,188.1 546.2,185.2 548.2,187.0 550.2,187.0 552.1,182.9 554.1,181.5 556.1,183.0 558.0,184.5 560.0,187.2"/>
<polyline fill="none" stroke="#ff7f0e" stroke-width="2" points="150.6,220.0 152.5,91.4 154.5,107.5 156.5,187.9 158.4,179.1 160.4,134.3 162.4,143.6 164.3,126.9 166.3,140.6 168.3,132.5 170.2,141.2 172.2,157.2 174.2,133.8 176.1,148.0"/>
<polyline fill="none" stroke="#2ca02c" stroke-width="2" points="60.0,-230.0 63.9,185.4 65.9,155.7 67.9,190.0 73.8,163.7 77.7,187.9 79.7,220.0 81.7,234.5 87.6,220.0 91.5,130.0 93.5,141.7 95.4,153.0 101.3,163.7 105.3,136.1 107.2,138.9 109.2,132.9 115.1,141.4 119.1,176.8 121.0,183.5 123.0,178.0 128.9,172.6 132.8,167.7 134.8,158.6 136.8,164.4 142.7,160.0 146.6,166.0 148.6,158.2 150.6,154.5 156.5,150.8 160.4,148.9 162.4,153.5 164.3,150.2 170.2,154.6 174.2,170.8 176.1,174.7 178.1,178.5 184.0,175.3 188.0,178.5 189.9,175.6 191.9,179.1 197.8,176.2 201.7,182.3 203.7,179.6 205.7,182.7 211.6,180.1 215.5,180.1 217.5,177.6 219.4,175.3 223.4,175.8 225.4,181.4 229.3,178.6 231.3,181.3 233.2,179.1 239.1,176.9 243.1,186.1 245.0,188.5 247.0,186.4 252.9,188.8 256.9,180.2 258.8,182.5 260.8,180.6 266.7,178.7 268.7,181.0 270.6,186.9 272.6,189.0 274.6,191.0 278.5,191.3 280.5,193.3 282.4,195.3 284.4,203.6 286.4,201.9 288.3,200.1 296.2,198.4 298.2,189.3 300.2,187.7 310.0,189.5 312.0,191.6 313.9,190.0 315.9,191.8 323.8,190.2 325.7,188.9 339.5,189.1"/>
<rect x="576" y="31" width="12" height="12" fill="#1f77b4"/>
<text x="594" y="41" fill="#333">MLB</text>
<rect x="576" y="51" width="12" height="12" fill="#ff7f0e"/>
<text x="594" y="61" fill="#333">NBA</text>
<rect x="576" y="71" width="12" height="12" fill="#2ca02c"/>
<text x="594" y="81" fill="#333">NFL</text>
</svg>