<svg xmlns="http://www.w3.org/2000/svg" viewBox="0 0 760 360" font-family="system-ui, -apple-system, sans-serif" font-size="12">
<rect width="760" height="360" fill="white"/>
<text x="380.0" y="22" text-anchor="middle" font-size="16" font-weight="600">Season-to-date Home Win % by League</text>
<line x1="60" y1="310.0" x2="560" y2="310.0" stroke="#eee"/>
<text x="54" y="314.0" text-anchor="end" fill="#666">40%</text>
<line x1="60" y1="242.5" x2="560" y2="242.5" stroke="#eee"/>
<text x="54" y="246.5" text-anchor="end" fill="#666">48%</text>
<line x1="60" y1="175.0" x2="560" y2="175.0" stroke="#eee"/>
<text x="54" y="179.0" text-anchor="end" fill="#666">55%</text>
<line x1="60" y1="107.5" x2="560" y2="107.5" stroke="#eee"/>
<text x="54" y="111.5" text-anchor="end" fill="#666">62%</text>
<line x1="60" y1="40.0" x2="560" y2="40.0" stroke="#eee"/>
<text x="54" y="44.0" text-anchor="end" fill="#666">70%</text>
<line x1="60.0" y1="310" x2="60.0" y2="314" stroke="#999"/>
<text x="60.0" y="328" text-anchor="middle" fill="#666">2025-09-05</text>
<line x1="185.0" y1="310" x2="185.0" y2="314" stroke="#999"/>
<text x="185.0" y="328" text-anchor="middle" fill="#666">2025-11-08</text>
<line x1="310.0" y1="310" x2="310.0" y2="314" stroke="#999"/>
<text x="310.0" y="328" text-anchor="middle" fill="#666">2026-01-12</text>
<line x1="435.0" y1="310" x2="435.0" y2="314" stroke="#999"/>
<text x="435.0" y="328" text-anchor="middle" fill="#666">2026-03-17</text>
<line x1="560.0" y1="310" x2="560.0" y2="314" stroke="#999"/>
<text x="560.0" y="328" text-anchor="middle" fill="#666">2026-05-20</text>
<line x1="60" y1="40" x2="60" y2="310" stroke="#444"/>
<line x1="60" y1="310" x2="560" y2="310" stroke="#444"/>
<line x1="60" y1="220.0" x2="560" y2="220.0" stroke="#bbb" stroke-dasharray="4,4"/>
<polyline fill="none" stroke="#1f77b4" stroke-width="2" points="451.1,670.0 453.0,220.0 454.9,175.0 456.9,104.3 458.8,114.7 460.8,147.4 462.7,148.9 464.7,126.0 466.6,133.8 468.6,136.7 470.5,150.5 472.5,165.0 474.4,172.6 476.3,168.8 478.3,170.5 480.2,172.1 482.2,169.0 484.1,166.3 486.1,171.7 488.0,166.3 490.0,164.2 491.9,155.7 493.9,161.2 495.8,168.7 497.7,172.6 499.7,173.4 501.6,180.1 503.6,185.6 505.5,180.9 507.5,183.0 509.4,186.6 511.4,187.8 513.3,186.9 515.3,187.5 517.2,187.6 519.1,189.5 521.1,187.3 523.0,191.1 525.0,191.1 526.9,189.3 528.9,188.3 530.8,186.5 532.8,189.9 534.7,190.4 536.7,192.0 538.6,188.1 540.5,185.2 542.5,187.0 544.4,187.0 546.4,182.9 548.3,181.5 550.3,183.0 552.2,184.5 554.2,187.2 556.1,184.0 558.1,187.9 560.0,191.5"/>
<polyline fill="none" stroke="#ff7f0e" stroke-width="2" points="149.5,220.0 151.4,91.4 153.4,107.5 155.3,187.9 157.3,179.1 159.2,134.3 161.2,143.6 163.1,126.9 165.1,140.6 167.0,132.5 168.9,141.2 170.9,157.2 172.8,133.8 174.8,148.0"/>
<polyline fill="none" stroke="#2ca02c" stroke-width="2" points="60.0,-230.0 63.9,185.4 65.8,155.7 67.8,190.0 73.6,163.7 77.5,187.9 79.5,220.0 81.4,234.5 87.2,220.0 91.1,130.0 93.1,141.7 95.0,153.0 100.9,163.7 104.7,136.1 106.7,138.9 108.6,132.9 114.5,141.4 118.4,176.8 120.3,183.5 122.3,178.0 128.1,172.6 132.0,167.7 133.9,158.6 135.9,164.4 141.7,160.0 145.6,166.0 147.5,158.2 149.5,154.5 155.3,150.8 159.2,148.9 161.2,153.5 163.1,150.2 168.9,154.6 172.8,170.8 174.8,174.7 176.7,178.5 182.6,175.3 186.5,178.5 188.4,175.6 190.4,179.1 196.2,176.2 200.1,182.3 202.0,179.6 204.0,182.7 209.8,180.1 213.7,180.1 215.6,177.6 217.6,175.3 221.5,175.8 223.4,181.4 227.3,178.6 229.3,181.3 231.2,179.1 237.0,176.9 240.9,186.1 242.9,188.5 244.8,186.4 250.7,188.8 254.6,180.2 256.5,182.5 258.4,180.6 264.3,178.7 266.2,181.0 268.2,186.9 270.1,189.0 272.1,191.0 276.0,191.3 277.9,193.3 279.8,195.3 281.8,203.6 283.7,201.9 285.7,200.1 293.5,198.4 295.4,189.3 297.4,187.7 307.1,189.5 309.0,191.6 311.0,190.0 312.9,191.8 320.7,190.2 322.6,188.9 336.3,189.1"/>
<polyline fill="none" stroke="#d62728" stroke-width="2" points="556.1,670.0 560.0,670.0"/>
<rect x="576" y="31" width="12" height="12" fill="#1f77b4"/>
<text x="594" y="41" fill="#333">MLB</text>
<rect x="576" y="51" width="12" height="12" fill="#ff7f0e"/>
<text x="594" y="61" fill="#333">NBA</text>
<rect x="576" y="71" width="12" height="12" fill="#2ca02c"/>
<text x="594" y="81" fill="#333">NFL</text>
<rect x="576" y="91" width="12" height="12" fill="#d62728"/>
<text x="594" y="101" fill="#333">NHL</text>
</svg>