<svg xmlns="http://www.w3.org/2000/svg" viewBox="0 0 760 360" font-family="system-ui, -apple-system, sans-serif" font-size="12">
<rect width="760" height="360" fill="white"/>
<text x="380.0" y="22" text-anchor="middle" font-size="16" font-weight="600">Season-to-date Home Win % by League</text>
<line x1="60" y1="310.0" x2="560" y2="310.0" stroke="#eee"/>
<text x="54" y="314.0" text-anchor="end" fill="#666">40%</text>
<line x1="60" y1="242.5" x2="560" y2="242.5" stroke="#eee"/>
<text x="54" y="246.5" text-anchor="end" fill="#666">48%</text>
<line x1="60" y1="175.0" x2="560" y2="175.0" stroke="#eee"/>
<text x="54" y="179.0" text-anchor="end" fill="#666">55%</text>
<line x1="60" y1="107.5" x2="560" y2="107.5" stroke="#eee"/>
<text x="54" y="111.5" text-anchor="end" fill="#666">62%</text>
<line x1="60" y1="40.0" x2="560" y2="40.0" stroke="#eee"/>
<text x="54" y="44.0" text-anchor="end" fill="#666">70%</text>
<line x1="60.0" y1="310" x2="60.0" y2="314" stroke="#999"/>
<text x="60.0" y="328" text-anchor="middle" fill="#666">2025-09-05</text>
<line x1="185.0" y1="310" x2="185.0" y2="314" stroke="#999"/>
<text x="185.0" y="328" text-anchor="middle" fill="#666">2025-11-08</text>
<line x1="310.0" y1="310" x2="310.0" y2="314" stroke="#999"/>
<text x="310.0" y="328" text-anchor="middle" fill="#666">2026-01-11</text>
<line x1="435.0" y1="310" x2="435.0" y2="314" stroke="#999"/>
<text x="435.0" y="328" text-anchor="middle" fill="#666">2026-03-16</text>
<line x1="560.0" y1="310" x2="560.0" y2="314" stroke="#999"/>
<text x="560.0" y="328" text-anchor="middle" fill="#666">2026-05-19</text>
<line x1="60" y1="40" x2="60" y2="310" stroke="#444"/>
<line x1="60" y1="310" x2="560" y2="310" stroke="#444"/>
<line x1="60" y1="220.0" x2="560" y2="220.0" stroke="#bbb" stroke-dasharray="4,4"/>
<polyline fill="none" stroke="#1f77b4" stroke-width="2" points="452.6,670.0 454.5,220.0 456.5,175.0 458.4,104.3 460.4,114.7 462.3,147.4 464.3,148.9 466.2,126.0 468.2,133.8 470.2,136.7 472.1,150.5 474.1,165.0 476.0,172.6 478.0,168.8 479.9,170.5 481.9,172.1 483.8,169.0 485.8,166.3 487.7,171.7 489.7,166.3 491.6,164.2 493.6,155.7 495.5,161.2 497.5,168.7 499.5,172.6 501.4,173.4 503.4,180.1 505.3,185.6 507.3,180.9 509.2,183.0 511.2,186.6 513.1,187.8 515.1,186.9 517.0,187.5 519.0,187.6 520.9,189.5 522.9,187.3 524.8,191.1 526.8,191.1 528.8,189.3 530.7,188.3 532.7,186.5 534.6,189.9 536.6,190.4 538.5,192.0 540.5,188.1 542.4,185.2 544.4,187.0 546.3,187.0 548.3,182.9 550.2,181.5 552.2,183.0 554.1,184.5 556.1,187.2 558.0,184.0 560.0,187.9"/>
<polyline fill="none" stroke="#ff7f0e" stroke-width="2" points="149.8,220.0 151.8,91.4 153.8,107.5 155.7,187.9 157.7,179.1 159.6,134.3 161.6,143.6 163.5,126.9 165.5,140.6 167.4,132.5 169.4,141.2 171.3,157.2 173.3,133.8 175.2,148.0"/>
<polyline fill="none" stroke="#2ca02c" stroke-width="2" points="60.0,-230.0 63.9,185.4 65.9,155.7 67.8,190.0 73.7,163.7 77.6,187.9 79.5,220.0 81.5,234.5 87.3,220.0 91.2,130.0 93.2,141.7 95.2,153.0 101.0,163.7 104.9,136.1 106.9,138.9 108.8,132.9 114.7,141.4 118.6,176.8 120.5,183.5 122.5,178.0 128.4,172.6 132.3,167.7 134.2,158.6 136.2,164.4 142.0,160.0 145.9,166.0 147.9,158.2 149.8,154.5 155.7,150.8 159.6,148.9 161.6,153.5 163.5,150.2 169.4,154.6 173.3,170.8 175.2,174.7 177.2,178.5 183.0,175.3 187.0,178.5 188.9,175.6 190.9,179.1 196.7,176.2 200.6,182.3 202.6,179.6 204.5,182.7 210.4,180.1 214.3,180.1 216.2,177.6 218.2,175.3 222.1,175.8 224.1,181.4 228.0,178.6 229.9,181.3 231.9,179.1 237.7,176.9 241.6,186.1 243.6,188.5 245.5,186.4 251.4,188.8 255.3,180.2 257.3,182.5 259.2,180.6 265.1,178.7 267.0,181.0 269.0,186.9 270.9,189.0 272.9,191.0 276.8,191.3 278.8,193.3 280.7,195.3 282.7,203.6 284.6,201.9 286.6,200.1 294.4,198.4 296.3,189.3 298.3,187.7 308.0,189.5 310.0,191.6 312.0,190.0 313.9,191.8 321.7,190.2 323.7,188.9 337.3,189.1"/>
<rect x="576" y="31" width="12" height="12" fill="#1f77b4"/>
<text x="594" y="41" fill="#333">MLB</text>
<rect x="576" y="51" width="12" height="12" fill="#ff7f0e"/>
<text x="594" y="61" fill="#333">NBA</text>
<rect x="576" y="71" width="12" height="12" fill="#2ca02c"/>
<text x="594" y="81" fill="#333">NFL</text>
</svg>