<svg xmlns="http://www.w3.org/2000/svg" viewBox="0 0 760 360" font-family="system-ui, -apple-system, sans-serif" font-size="12">
<rect width="760" height="360" fill="white"/>
<text x="380.0" y="22" text-anchor="middle" font-size="16" font-weight="600">Season-to-date Home Win % by League</text>
<line x1="60" y1="310.0" x2="560" y2="310.0" stroke="#eee"/>
<text x="54" y="314.0" text-anchor="end" fill="#666">40%</text>
<line x1="60" y1="242.5" x2="560" y2="242.5" stroke="#eee"/>
<text x="54" y="246.5" text-anchor="end" fill="#666">48%</text>
<line x1="60" y1="175.0" x2="560" y2="175.0" stroke="#eee"/>
<text x="54" y="179.0" text-anchor="end" fill="#666">55%</text>
<line x1="60" y1="107.5" x2="560" y2="107.5" stroke="#eee"/>
<text x="54" y="111.5" text-anchor="end" fill="#666">62%</text>
<line x1="60" y1="40.0" x2="560" y2="40.0" stroke="#eee"/>
<text x="54" y="44.0" text-anchor="end" fill="#666">70%</text>
<line x1="60.0" y1="310" x2="60.0" y2="314" stroke="#999"/>
<text x="60.0" y="328" text-anchor="middle" fill="#666">2025-09-05</text>
<line x1="185.0" y1="310" x2="185.0" y2="314" stroke="#999"/>
<text x="185.0" y="328" text-anchor="middle" fill="#666">2025-11-09</text>
<line x1="310.0" y1="310" x2="310.0" y2="314" stroke="#999"/>
<text x="310.0" y="328" text-anchor="middle" fill="#666">2026-01-14</text>
<line x1="435.0" y1="310" x2="435.0" y2="314" stroke="#999"/>
<text x="435.0" y="328" text-anchor="middle" fill="#666">2026-03-21</text>
<line x1="560.0" y1="310" x2="560.0" y2="314" stroke="#999"/>
<text x="560.0" y="328" text-anchor="middle" fill="#666">2026-05-25</text>
<line x1="60" y1="40" x2="60" y2="310" stroke="#444"/>
<line x1="60" y1="310" x2="560" y2="310" stroke="#444"/>
<line x1="60" y1="220.0" x2="560" y2="220.0" stroke="#bbb" stroke-dasharray="4,4"/>
<polyline fill="none" stroke="#1f77b4" stroke-width="2" points="443.6,670.0 445.5,220.0 447.4,175.0 449.3,104.3 451.2,114.7 453.1,147.4 455.0,148.9 456.9,126.0 458.9,133.8 460.8,136.7 462.7,150.5 464.6,165.0 466.5,172.6 468.4,168.8 470.3,170.5 472.2,172.1 474.1,169.0 476.0,166.3 477.9,171.7 479.8,166.3 481.8,164.2 483.7,155.7 485.6,161.2 487.5,168.7 489.4,172.6 491.3,173.4 493.2,180.1 495.1,185.6 497.0,180.9 498.9,183.0 500.8,186.6 502.7,187.8 504.7,186.9 506.6,187.5 508.5,187.6 510.4,189.5 512.3,187.3 514.2,191.1 516.1,191.1 518.0,189.3 519.9,188.3 521.8,186.5 523.7,189.9 525.6,190.4 527.6,192.0 529.5,188.1 531.4,185.2 533.3,187.0 535.2,187.0 537.1,182.9 539.0,181.5 540.9,183.0 542.8,184.5 544.7,187.2 546.6,184.0 548.5,187.9 550.5,191.5 552.4,194.8 554.3,195.3 556.2,193.4 558.1,194.5 560.0,196.6"/>
<polyline fill="none" stroke="#ff7f0e" stroke-width="2" points="147.8,220.0 149.7,91.4 151.6,107.5 153.5,187.9 155.4,179.1 157.3,134.3 159.2,143.6 161.1,126.9 163.1,140.6 165.0,132.5 166.9,141.2 168.8,157.2 170.7,133.8 172.6,148.0"/>
<polyline fill="none" stroke="#2ca02c" stroke-width="2" points="60.0,-230.0 63.8,185.4 65.7,155.7 67.6,190.0 73.4,163.7 77.2,187.9 79.1,220.0 81.0,234.5 86.7,220.0 90.5,130.0 92.4,141.7 94.4,153.0 100.1,163.7 103.9,136.1 105.8,138.9 107.7,132.9 113.4,141.4 117.3,176.8 119.2,183.5 121.1,178.0 126.8,172.6 130.6,167.7 132.5,158.6 134.4,164.4 140.2,160.0 144.0,166.0 145.9,158.2 147.8,154.5 153.5,150.8 157.3,148.9 159.2,153.5 161.1,150.2 166.9,154.6 170.7,170.8 172.6,174.7 174.5,178.5 180.2,175.3 184.0,178.5 186.0,175.6 187.9,179.1 193.6,176.2 197.4,182.3 199.3,179.6 201.2,182.7 206.9,180.1 210.8,180.1 212.7,177.6 214.6,175.3 218.4,175.8 220.3,181.4 224.1,178.6 226.0,181.3 227.9,179.1 233.7,176.9 237.5,186.1 239.4,188.5 241.3,186.4 247.0,188.8 250.8,180.2 252.7,182.5 254.7,180.6 260.4,178.7 262.3,181.0 264.2,186.9 266.1,189.0 268.0,191.0 271.8,191.3 273.7,193.3 275.6,195.3 277.6,203.6 279.5,201.9 281.4,200.1 289.0,198.4 290.9,189.3 292.8,187.7 302.4,189.5 304.3,191.6 306.2,190.0 308.1,191.8 315.7,190.2 317.6,188.9 331.0,189.1"/>
<polyline fill="none" stroke="#d62728" stroke-width="2" points="546.6,670.0 550.5,670.0 552.4,670.0 554.3,670.0 556.2,490.0 558.1,370.0 560.0,412.9"/>
<rect x="576" y="31" width="12" height="12" fill="#1f77b4"/>
<text x="594" y="41" fill="#333">MLB</text>
<rect x="576" y="51" width="12" height="12" fill="#ff7f0e"/>
<text x="594" y="61" fill="#333">NBA</text>
<rect x="576" y="71" width="12" height="12" fill="#2ca02c"/>
<text x="594" y="81" fill="#333">NFL</text>
<rect x="576" y="91" width="12" height="12" fill="#d62728"/>
<text x="594" y="101" fill="#333">NHL</text>
</svg>