<svg xmlns="http://www.w3.org/2000/svg" viewBox="0 0 760 360" font-family="system-ui, -apple-system, sans-serif" font-size="12">
<rect width="760" height="360" fill="white"/>
<text x="380.0" y="22" text-anchor="middle" font-size="16" font-weight="600">Season-to-date Home Win % (Spotlight Teams)</text>
<line x1="60" y1="310.0" x2="560" y2="310.0" stroke="#eee"/>
<text x="54" y="314.0" text-anchor="end" fill="#666">0%</text>
<line x1="60" y1="242.5" x2="560" y2="242.5" stroke="#eee"/>
<text x="54" y="246.5" text-anchor="end" fill="#666">25%</text>
<line x1="60" y1="175.0" x2="560" y2="175.0" stroke="#eee"/>
<text x="54" y="179.0" text-anchor="end" fill="#666">50%</text>
<line x1="60" y1="107.5" x2="560" y2="107.5" stroke="#eee"/>
<text x="54" y="111.5" text-anchor="end" fill="#666">75%</text>
<line x1="60" y1="40.0" x2="560" y2="40.0" stroke="#eee"/>
<text x="54" y="44.0" text-anchor="end" fill="#666">100%</text>
<line x1="60.0" y1="310" x2="60.0" y2="314" stroke="#999"/>
<text x="60.0" y="328" text-anchor="middle" fill="#666">2025-09-14</text>
<line x1="185.0" y1="310" x2="185.0" y2="314" stroke="#999"/>
<text x="185.0" y="328" text-anchor="middle" fill="#666">2025-11-16</text>
<line x1="310.0" y1="310" x2="310.0" y2="314" stroke="#999"/>
<text x="310.0" y="328" text-anchor="middle" fill="#666">2026-01-18</text>
<line x1="435.0" y1="310" x2="435.0" y2="314" stroke="#999"/>
<text x="435.0" y="328" text-anchor="middle" fill="#666">2026-03-23</text>
<line x1="560.0" y1="310" x2="560.0" y2="314" stroke="#999"/>
<text x="560.0" y="328" text-anchor="middle" fill="#666">2026-05-25</text>
<line x1="60" y1="40" x2="60" y2="310" stroke="#444"/>
<line x1="60" y1="310" x2="560" y2="310" stroke="#444"/>
<line x1="60" y1="175.0" x2="560" y2="175.0" stroke="#bbb" stroke-dasharray="4,4"/>
<polyline fill="none" stroke="#1f77b4" stroke-width="2" points="143.0,40.0 145.0,175.0 148.9,220.0"/>
<polyline fill="none" stroke="#ff7f0e" stroke-width="2" points="457.2,40.0 459.2,175.0 461.2,220.0 463.2,175.0 465.1,148.0 467.1,130.0 469.1,117.1 477.0,107.5 479.0,100.0 480.9,121.0 484.9,138.2 486.9,152.5 488.9,164.6 504.7,155.7 506.6,166.0 508.6,175.0 510.6,167.1 512.6,175.0 514.5,182.1 516.5,175.0 534.3,168.6 536.3,175.0 538.3,169.1 540.2,175.0 542.2,180.4 544.2,175.0 546.2,170.0 548.1,175.0 550.1,170.3"/>
<polyline fill="none" stroke="#2ca02c" stroke-width="2" points="62.0,310.0 73.8,175.0 129.2,220.0 170.7,242.5 184.5,256.0 226.0,220.0 261.6,194.3 281.3,175.0"/>
<polyline fill="none" stroke="#d62728" stroke-width="2" points="457.2,40.0 459.2,40.0 461.2,40.0 463.2,107.5 465.1,94.0 467.1,130.0 477.0,117.1 479.0,141.2 480.9,130.0 482.9,148.0 484.9,138.2 486.9,152.5 488.9,143.8 504.7,155.7 506.6,166.0 508.6,175.0 510.6,182.9 512.6,175.0 514.5,167.9 516.5,161.5 534.3,155.7 536.3,162.7 538.3,157.4 540.2,163.8 542.2,169.6 544.2,175.0 560.0,170.0"/>
<polyline fill="none" stroke="#9467bd" stroke-width="2" points="60.0,310.0 115.3,175.0 145.0,220.0 156.8,175.0 184.5,148.0 212.2,175.0 243.8,155.7 283.3,141.2 299.1,160.0"/>
<rect x="576" y="31" width="12" height="12" fill="#1f77b4"/>
<text x="594" y="41" fill="#333">Minnesota Timberwolves</text>
<rect x="576" y="51" width="12" height="12" fill="#ff7f0e"/>
<text x="594" y="61" fill="#333">Minnesota Twins</text>
<rect x="576" y="71" width="12" height="12" fill="#2ca02c"/>
<text x="594" y="81" fill="#333">Minnesota Vikings</text>
<rect x="576" y="91" width="12" height="12" fill="#d62728"/>
<text x="594" y="101" fill="#333">Pittsburgh Pirates</text>
<rect x="576" y="111" width="12" height="12" fill="#9467bd"/>
<text x="594" y="121" fill="#333">Pittsburgh Steelers</text>
</svg>