<svg xmlns="http://www.w3.org/2000/svg" viewBox="0 0 760 360" font-family="system-ui, -apple-system, sans-serif" font-size="12">
<rect width="760" height="360" fill="white"/>
<text x="380.0" y="22" text-anchor="middle" font-size="16" font-weight="600">Season-to-date Home Win % (Spotlight Teams)</text>
<line x1="60" y1="310.0" x2="560" y2="310.0" stroke="#eee"/>
<text x="54" y="314.0" text-anchor="end" fill="#666">0%</text>
<line x1="60" y1="242.5" x2="560" y2="242.5" stroke="#eee"/>
<text x="54" y="246.5" text-anchor="end" fill="#666">25%</text>
<line x1="60" y1="175.0" x2="560" y2="175.0" stroke="#eee"/>
<text x="54" y="179.0" text-anchor="end" fill="#666">50%</text>
<line x1="60" y1="107.5" x2="560" y2="107.5" stroke="#eee"/>
<text x="54" y="111.5" text-anchor="end" fill="#666">75%</text>
<line x1="60" y1="40.0" x2="560" y2="40.0" stroke="#eee"/>
<text x="54" y="44.0" text-anchor="end" fill="#666">100%</text>
<line x1="60.0" y1="310" x2="60.0" y2="314" stroke="#999"/>
<text x="60.0" y="328" text-anchor="middle" fill="#666">2025-09-14</text>
<line x1="185.0" y1="310" x2="185.0" y2="314" stroke="#999"/>
<text x="185.0" y="328" text-anchor="middle" fill="#666">2025-11-14</text>
<line x1="310.0" y1="310" x2="310.0" y2="314" stroke="#999"/>
<text x="310.0" y="328" text-anchor="middle" fill="#666">2026-01-14</text>
<line x1="435.0" y1="310" x2="435.0" y2="314" stroke="#999"/>
<text x="435.0" y="328" text-anchor="middle" fill="#666">2026-03-17</text>
<line x1="560.0" y1="310" x2="560.0" y2="314" stroke="#999"/>
<text x="560.0" y="328" text-anchor="middle" fill="#666">2026-05-17</text>
<line x1="60" y1="40" x2="60" y2="310" stroke="#444"/>
<line x1="60" y1="310" x2="560" y2="310" stroke="#444"/>
<line x1="60" y1="175.0" x2="560" y2="175.0" stroke="#bbb" stroke-dasharray="4,4"/>
<polyline fill="none" stroke="#1f77b4" stroke-width="2" points="145.7,40.0 147.8,175.0 151.8,220.0"/>
<polyline fill="none" stroke="#ff7f0e" stroke-width="2" points="470.2,40.0 472.2,175.0 474.3,220.0 476.3,175.0 478.4,148.0 480.4,130.0 482.4,117.1 490.6,107.5 492.7,100.0 494.7,121.0 498.8,138.2 500.8,152.5 502.9,164.6 519.2,155.7 521.2,166.0 523.3,175.0 525.3,167.1 527.3,175.0 529.4,182.1 531.4,175.0 549.8,168.6 551.8,175.0 553.9,169.1 555.9,175.0 558.0,180.4 560.0,175.0"/>
<polyline fill="none" stroke="#2ca02c" stroke-width="2" points="62.0,310.0 74.3,175.0 131.4,220.0 174.3,242.5 188.6,256.0 231.4,220.0 268.2,194.3 288.6,175.0"/>
<polyline fill="none" stroke="#d62728" stroke-width="2" points="470.2,40.0 472.2,40.0 474.3,40.0 476.3,107.5 478.4,94.0 480.4,130.0 490.6,117.1 492.7,141.2 494.7,130.0 496.7,148.0 498.8,138.2 500.8,152.5 502.9,143.8 519.2,155.7 521.2,166.0 523.3,175.0 525.3,182.9 527.3,175.0 529.4,167.9 531.4,161.5 549.8,155.7 551.8,162.7 553.9,157.4 555.9,163.8 558.0,169.6 560.0,175.0"/>
<polyline fill="none" stroke="#9467bd" stroke-width="2" points="60.0,310.0 117.1,175.0 147.8,220.0 160.0,175.0 188.6,148.0 217.1,175.0 249.8,155.7 290.6,141.2 306.9,160.0"/>
<rect x="576" y="31" width="12" height="12" fill="#1f77b4"/>
<text x="594" y="41" fill="#333">Minnesota Timberwolves</text>
<rect x="576" y="51" width="12" height="12" fill="#ff7f0e"/>
<text x="594" y="61" fill="#333">Minnesota Twins</text>
<rect x="576" y="71" width="12" height="12" fill="#2ca02c"/>
<text x="594" y="81" fill="#333">Minnesota Vikings</text>
<rect x="576" y="91" width="12" height="12" fill="#d62728"/>
<text x="594" y="101" fill="#333">Pittsburgh Pirates</text>
<rect x="576" y="111" width="12" height="12" fill="#9467bd"/>
<text x="594" y="121" fill="#333">Pittsburgh Steelers</text>
</svg>